<svg width="21" height="21" viewBox="0 0 21 21" fill="none" xmlns="http://www.w3.org/2000/svg">
<path fill-rule="evenodd" clip-rule="evenodd" d="M5.4624 1.8852C5.4132 1.9308 5.4 1.9752 5.4 2.0076V8.6532C5.4 10.3332 5.8632 11.7732 6.6996 12.7776C7.5192 13.7592 8.7576 14.4 10.5 14.4C12.2424 14.4 13.4808 13.7592 14.3004 12.7776C15.1368 11.7744 15.6 10.3332 15.6 8.6532V2.0076C15.6 1.9752 15.588 1.9308 15.5376 1.8852C15.4718 1.82817 15.3871 1.79778 15.3 1.8H5.7C5.61295 1.79778 5.52821 1.82817 5.4624 1.8852ZM3.6 2.0076C3.6 0.8316 4.6092 0 5.7 0H15.3C16.3908 0 17.4 0.8328 17.4 2.0076V2.4H18.9C20.0592 2.4 21 3.3408 21 4.5V6.9C21 9.1896 19.1676 11.0052 17.0316 11.3436C16.7645 12.2891 16.3053 13.1695 15.6828 13.9296C14.6592 15.156 13.2108 15.9552 11.4 16.152V19.2H14.1C14.3387 19.2 14.5676 19.2948 14.7364 19.4636C14.9052 19.6324 15 19.8613 15 20.1C15 20.3387 14.9052 20.5676 14.7364 20.7364C14.5676 20.9052 14.3387 21 14.1 21H6.9C6.66131 21 6.43239 20.9052 6.2636 20.7364C6.09482 20.5676 6 20.3387 6 20.1C6 19.8613 6.09482 19.6324 6.2636 19.4636C6.43239 19.2948 6.66131 19.2 6.9 19.2H9.6V16.152C7.7892 15.954 6.3408 15.156 5.3172 13.9296C4.69472 13.1694 4.23557 12.2891 3.9684 11.3436C1.8324 11.004 0 9.1896 0 6.9V4.5C0 3.3408 0.9408 2.4 2.1 2.4H3.6V2.0076ZM3.6 4.2H2.1C2.02044 4.2 1.94413 4.23161 1.88787 4.28787C1.83161 4.34413 1.8 4.42044 1.8 4.5V6.9C1.8 7.992 2.5728 8.9856 3.6264 9.3984C3.60882 9.15079 3.60002 8.90263 3.6 8.6544V4.2ZM17.3736 9.3984C18.4272 8.9856 19.2 7.992 19.2 6.9V4.5C19.2 4.42044 19.1684 4.34413 19.1121 4.28787C19.0559 4.23161 18.9796 4.2 18.9 4.2H17.4V8.6532C17.4 8.904 17.3916 9.1524 17.3736 9.3984Z" fill="#282828"/>
</svg>
