<svg width="20" height="23" viewBox="0 0 20 23" fill="none" xmlns="http://www.w3.org/2000/svg">
<path d="M8.43714 0.853759C8.88049 0.482531 9.43143 0.280273 9.99929 0.280273C10.5671 0.280273 11.1181 0.482531 11.5614 0.853759L19.0614 7.13106C19.6543 7.62726 20 8.37905 20 9.17417V19.6647C20 20.3584 19.7366 21.0237 19.2678 21.5142C18.7989 22.0047 18.163 22.2803 17.5 22.2803H12.5C12.2158 22.2803 11.9433 22.1622 11.7424 21.952C11.5415 21.7417 11.4286 21.4566 11.4286 21.1593V13.3127H8.57143V21.1593C8.57143 21.4566 8.45855 21.7417 8.25762 21.952C8.05668 22.1622 7.78416 22.2803 7.5 22.2803H2.5C1.83696 22.2803 1.20107 22.0047 0.732233 21.5142C0.263392 21.0237 0 20.3584 0 19.6647V9.17268C0 8.37905 0.345714 7.62726 0.938571 7.13106L8.43714 0.853759ZM10.2229 2.60393C10.1596 2.55106 10.081 2.52226 10 2.52226C9.91901 2.52226 9.84043 2.55106 9.77714 2.60393L2.27714 8.88123C2.23513 8.91633 2.20123 8.96091 2.17798 9.01163C2.15472 9.06235 2.14272 9.11792 2.14286 9.17417V19.6647C2.14286 19.871 2.30286 20.0384 2.5 20.0384H6.42857V12.1918C6.42857 11.8945 6.54145 11.6093 6.74239 11.3991C6.94332 11.1889 7.21584 11.0708 7.5 11.0708H12.5C12.7842 11.0708 13.0567 11.1889 13.2576 11.3991C13.4585 11.6093 13.5714 11.8945 13.5714 12.1918V20.0384H17.5C17.5947 20.0384 17.6856 19.999 17.7525 19.9289C17.8195 19.8589 17.8571 19.7638 17.8571 19.6647V9.17268C17.8571 9.11667 17.845 9.0614 17.8217 9.01096C17.7985 8.96051 17.7647 8.91617 17.7229 8.88123L10.2229 2.60393Z" fill="#282828"/>
</svg>
