<svg width="20" height="22" viewBox="0 0 20 22" fill="none" xmlns="http://www.w3.org/2000/svg">
<path d="M10 8.77778C10.5516 8.77778 11.0977 8.67719 11.6073 8.48175C12.1168 8.28632 12.5798 7.99987 12.9698 7.63875C13.3599 7.27763 13.6692 6.84892 13.8803 6.3771C14.0914 5.90528 14.2 5.39959 14.2 4.88889C14.2 4.37819 14.0914 3.8725 13.8803 3.40068C13.6692 2.92885 13.3599 2.50015 12.9698 2.13903C12.5798 1.77791 12.1168 1.49146 11.6073 1.29602C11.0977 1.10059 10.5516 1 10 1C8.88609 1 7.8178 1.40972 7.03015 2.13903C6.2425 2.86834 5.8 3.85749 5.8 4.88889C5.8 5.92029 6.2425 6.90944 7.03015 7.63875C7.8178 8.36806 8.88609 8.77778 10 8.77778ZM1 20.3333V21H19V20.3333C19 17.8444 19 16.6 18.4768 15.6489C18.0166 14.8127 17.2823 14.1328 16.3792 13.7067C15.352 13.2222 14.008 13.2222 11.32 13.2222H8.68C5.992 13.2222 4.648 13.2222 3.6208 13.7067C2.71766 14.1328 1.98339 14.8127 1.5232 15.6489C1 16.6 1 17.8444 1 20.3333Z" stroke="#CCCCCC" stroke-width="2" stroke-linecap="round" stroke-linejoin="round"/>
</svg>
